####
#
# OBJ File Generated by Meshlab
#
####
# Object end_right.obj
#
# Vertices: 89
# Faces: 154
#
####


vn -2.722094 -3.029085 0.567294
v 0.000000 -82.381317 12.960249
vn -2.722078 -3.029080 -0.567307
v 0.000000 -82.381325 -12.216021
vn 2.229379 -4.825643 -0.904499
v 24.628906 -81.994850 -12.141314
vn 2.229425 -4.825557 0.904542
v 24.628906 -81.994843 12.886030
vn -2.733263 -2.630487 -1.611973
v 0.000000 -73.734352 -34.492390
vn 2.236868 -4.194112 -2.570157
v 24.628906 -73.398781 -34.286823
vn -2.733227 -1.896360 -2.433455
v 0.000000 -57.811508 -52.310265
vn 2.236714 -3.023746 -3.880161
v 24.628906 -57.569443 -51.999718
vn -2.771736 -0.980450 -2.936598
v 0.000000 -36.643051 -63.397179
vn 2.262606 -1.564783 -4.696216
v 24.628906 -36.525620 -63.021202
vn -3.546852 -1.163131 -2.838763
v 0.000000 -17.639755 -66.503143
vn 2.691449 -2.016505 -4.867119
v 24.628906 -17.551254 -66.125214
vn -2.423854 -0.811033 -2.841477
v 0.000000 -15.102281 -68.295624
vn 1.920227 -1.365082 -4.555760
v 24.628906 -14.865952 -67.992889
vn 1.524018 2.291231 -4.305420
v 24.628906 -1.567369 -67.161835
vn -2.257215 1.322685 -2.530976
v 0.000000 -1.377916 -67.470428
vn -2.686563 2.746800 -1.369987
v 0.000000 0.851943 -64.645721
vn 1.620889 4.900552 -2.455674
v 24.628906 0.570693 -64.423553
vn 1.607607 5.624400 -0.731822
v 24.628906 1.771256 -59.749725
vn -2.839785 3.085794 -0.400330
v 0.000000 2.108902 -59.872772
vn 5.384216 -2.140143 -0.399520
v 25.749512 -80.674294 -11.886431
vn 5.384295 -2.140080 0.399427
v 25.749512 -80.674286 12.630659
vn 5.390010 -1.852309 -1.135204
v 25.749512 -72.252052 -33.584187
vn 5.389767 -1.335759 -1.714052
v 25.749512 -56.742905 -50.939171
vn 5.408450 -0.685029 -2.044945
v 25.750000 -36.124496 -61.737511
vn 5.716596 -0.638805 -1.614548
v 25.750977 -17.229721 -64.804901
vn 4.996901 -0.546769 -2.391251
v 25.749023 -14.164048 -66.976288
vn 4.521256 2.509351 -1.206895
v 25.741211 -0.015976 -63.979706
vn 4.326984 1.235590 -2.456779
v 25.742188 -2.013658 -66.466034
vn 4.597172 2.754973 -0.320379
v 25.740234 1.111832 -59.518280
vn 4.412427 2.900348 -0.000017
v 25.738770 1.280299 0.372345
vn 1.542569 5.269547 1.349365
v 24.628906 1.771277 73.306915
vn 4.411591 2.738857 0.674989
v 25.740234 1.111853 73.074982
vn -2.733250 -2.630481 1.611975
v 0.000000 -73.734344 35.237103
vn 2.237018 -4.193903 2.570082
v 24.628906 -73.398773 35.031536
vn -2.733290 -1.896358 2.433470
v 0.000000 -57.811489 53.054482
vn 2.236913 -3.023494 3.879935
v 24.628906 -57.569424 52.744423
vn -2.833853 -1.076567 2.918801
v 0.000000 -36.643032 64.141396
vn 2.302229 -1.725123 4.691545
v 24.628906 -36.525600 63.765419
vn 2.380842 -0.790619 5.016735
v 24.628906 -26.349085 66.088173
vn -2.954673 -0.486465 3.093648
v 0.000000 -26.406336 66.477821
vn 2.724969 -1.792824 4.943785
v 24.628906 -17.551233 66.869904
vn -3.596543 -1.015737 2.875876
v 0.000000 -17.639734 67.247345
vn -3.962508 -2.445857 1.488645
v 0.000000 -15.324183 68.800079
vn 2.727864 -4.527949 2.682284
v 24.628906 -14.998743 68.595978
vn -2.626618 -3.043113 0.177977
v 0.000000 -15.843957 75.915802
vn -3.386714 -3.110883 -0.096910
v 0.000000 -15.031701 71.358673
vn 2.225272 -5.600704 -0.208944
v 24.628906 -14.660851 71.315704
vn 1.871830 -5.169574 0.299729
v 24.628906 -15.476892 75.850861
vn -2.366183 -0.202682 2.915643
v 0.000000 -8.264977 81.936798
vn -2.259778 -2.161560 1.868557
v 0.000000 -14.971764 78.803497
vn 1.633437 -3.614966 3.069560
v 24.628906 -14.657555 78.621368
vn 1.665690 -0.329308 4.939238
v 24.628906 -8.235558 81.570099
vn -2.325106 1.831861 2.246267
v 0.000000 -1.377892 79.827911
vn 1.562955 3.126166 3.856370
v 24.628906 -1.567345 79.519318
vn -2.600706 2.943699 0.749102
v 0.000000 2.108924 73.429474
vn 5.390233 -1.852316 1.135028
v 25.749512 -72.252045 34.328411
vn 5.390100 -1.335514 1.713660
v 25.749512 -56.742886 51.683388
vn 5.438413 -0.745303 1.998704
v 25.749512 -36.124477 62.482216
vn 5.497012 -0.324866 2.052949
v 25.749512 -26.153650 64.757607
vn 5.740558 -0.568121 1.633405
v 25.750488 -17.229700 65.549103
vn 5.770077 -1.396224 0.843418
v 25.748535 -13.991419 67.881134
vn 5.334093 -2.244225 -0.075706
v 25.744141 -13.696984 71.194122
vn 4.882680 -2.569434 0.096459
v 25.744141 -14.524255 75.690216
vn 4.469186 -1.951969 1.831269
v 25.743652 -13.844566 78.143341
vn 4.579047 -0.170688 2.674707
v 25.742676 -8.166832 80.672150
vn 4.378542 1.783500 2.093220
v 25.742188 -2.013634 78.824005
vn -3.511847 0.000000 0.000000
v 0.000000 -79.138519 12.334272
vn -3.500648 0.000000 0.000000
v 0.000000 -70.918427 33.511517
vn -3.500618 0.000000 0.000000
v 0.000000 -55.781338 50.449501
vn -3.399428 0.000000 0.000000
v 0.000000 -35.657803 60.989052
vn -3.281454 0.000000 0.000000
v 0.000000 -25.944788 63.208286
vn -2.635794 0.000000 0.000000
v 0.000000 -16.548914 64.006622
vn -2.275156 0.000000 0.000000
v 0.000000 -12.219446 66.908966
vn -2.851408 0.000000 0.000000
v 0.000000 -11.698937 71.463165
vn -3.611262 0.000000 0.000000
v 0.000000 -12.457238 75.717560
vn -4.038395 0.000000 0.000000
v 0.000000 -12.060875 77.030060
vn -3.812760 0.000000 0.000000
v 0.000000 -8.154503 78.593536
vn -3.932138 0.000000 0.000000
v 0.000000 -3.497277 77.201447
vn -3.631388 0.000000 0.000000
v 0.000000 -1.188806 72.871368
vn -3.376942 0.000000 0.000000
v 0.000000 -1.188827 -59.314667
vn -3.568052 0.000000 0.000000
v 0.000000 -2.077744 -63.021698
vn -3.985024 0.000000 0.000000
v 0.000000 -3.497300 -64.843964
vn -3.740383 0.000000 0.000000
v 0.000000 -12.831407 -65.456757
vn -2.764980 0.000000 0.000000
v 0.000000 -16.548935 -63.262417
vn -3.467432 0.000000 0.000000
v 0.000000 -35.657822 -60.244835
vn -3.500632 0.000000 0.000000
v 0.000000 -55.781357 -49.705284
vn -3.500625 0.000000 0.000000
v 0.000000 -70.918434 -32.766804
vn -3.511856 0.000000 0.000000
v 0.000000 -79.138527 -11.590044
# 89 vertices, 0 vertices normals


usemtl material_0
vt 0.530357 0.000000
vt 0.530357 0.983627
f 1/1/1 2/1/2 3/2/3
f 3/2/3 4/2/4 1/1/1
vt 0.587500 0.000000
vt 0.587500 0.983627
f 2/1/2 5/3/5 6/4/6
f 6/4/6 3/2/3 2/1/2
vt 0.644643 0.000000
vt 0.644643 0.983627
f 5/3/5 7/5/7 8/6/8
f 8/6/8 6/4/6 5/3/5
vt 0.701786 0.000000
vt 0.701786 0.983627
f 7/5/7 9/7/9 10/8/10
f 10/8/10 8/6/8 7/5/7
vt 0.747768 0.000000
vt 0.747768 0.983627
f 9/7/9 11/9/11 12/10/12
f 12/10/12 10/8/10 9/7/9
vt 0.750000 0.038702
vt 0.750000 1.041665
f 13/11/13 14/12/14 12/10/12
f 12/10/12 11/9/11 13/11/13
vt 0.750000 0.861540
vt 0.750000 0.887116
vt 0.750000 0.000000
f 15/13/15 14/14/14 13/15/13
f 13/15/13 16/15/16 15/13/15
vt 0.750000 0.836435
f 17/15/17 18/16/18 15/13/15
f 15/13/15 16/15/16 17/15/17
vt 0.750000 0.827706
f 19/17/19 18/16/18 17/15/17
f 17/15/17 20/15/20 19/17/19
vt 0.530357 0.999904
f 3/2/3 21/18/21 22/18/22
f 22/18/22 4/2/4 3/2/3
vt 0.587500 0.999904
f 23/19/23 21/18/21 3/2/3
f 3/2/3 6/4/6 23/19/23
vt 0.644643 0.999904
f 24/20/24 23/19/23 6/4/6
f 6/4/6 8/6/8 24/20/24
vt 0.701786 0.999904
f 25/21/25 24/20/24 8/6/8
f 8/6/8 10/8/10 25/21/25
vt 0.747768 0.999904
f 26/22/26 25/21/25 10/8/10
f 10/8/10 12/10/12 26/22/26
vt 0.750000 0.999302
f 26/22/26 12/10/12 14/23/14
vt 0.750000 1.000000
f 14/23/14 27/24/27 26/22/26
vt 0.750000 0.600676
vt 0.750000 0.644204
f 18/16/18 28/25/28 29/26/29
f 29/26/29 15/13/15 18/16/18
vt 0.750000 0.581894
vt 0.750000 0.598924
f 19/17/19 30/27/30 28/28/28
f 28/28/28 18/16/18 19/17/19
vt 0.750000 0.681984
vt 0.750000 0.580041
f 31/29/31 30/30/30 19/17/19
f 31/29/31 19/17/19 32/17/32
vt 0.750000 0.693753
f 31/29/31 32/17/32 33/31/33
f 29/24/29 27/24/27 14/24/14
f 14/24/14 15/24/15 29/24/29
f 34/3/34 1/1/1 4/2/4
f 4/2/4 35/4/35 34/3/34
f 36/5/36 34/3/34 35/4/35
f 35/4/35 37/6/37 36/5/36
f 38/7/38 36/5/36 37/6/37
f 37/6/37 39/8/39 38/7/38
vt 0.726786 0.983627
vt 0.726786 0.000000
f 39/8/39 40/32/40 41/33/41
f 41/33/41 38/7/38 39/8/39
f 40/32/40 42/10/42 43/9/43
f 43/9/43 41/33/41 40/32/40
f 44/11/44 43/9/43 42/10/42
f 42/10/42 45/12/45 44/11/44
vt 0.750000 0.859619
f 46/15/46 47/15/47 48/34/48
vt 0.750000 0.860467
f 48/34/48 49/35/49 46/15/46
vt 0.750000 0.860984
f 50/15/50 51/15/51 52/36/52
vt 0.750000 0.871685
f 52/36/52 53/37/53 50/15/50
f 54/15/54 50/15/50 53/37/53
f 53/37/53 55/13/55 54/15/54
f 52/36/52 51/15/51 46/15/46
f 46/15/46 49/35/49 52/36/52
f 45/14/45 48/34/48 47/15/47
f 47/15/47 44/15/44 45/14/45
f 56/15/56 54/15/54 55/13/55
f 55/13/55 32/17/32 56/15/56
f 4/2/4 22/18/22 57/19/57
f 57/19/57 35/4/35 4/2/4
f 35/4/35 57/19/57 58/20/58
f 58/20/58 37/6/37 35/4/35
f 37/6/37 58/20/58 59/21/59
f 59/21/59 39/8/39 37/6/37
vt 0.726786 0.999904
f 39/8/39 59/21/59 60/38/60
f 60/38/60 40/32/40 39/8/39
f 61/22/61 42/10/42 40/32/40
f 40/32/40 60/38/60 61/22/61
f 61/22/61 62/24/62 45/23/45
f 45/23/45 42/10/42 61/22/61
f 62/24/62 63/24/63 48/24/48
f 48/24/48 45/24/45 62/24/62
f 63/24/63 64/24/64 49/24/49
f 49/24/49 48/24/48 63/24/63
f 64/24/64 65/24/65 52/24/52
f 52/24/52 49/24/49 64/24/64
vt 0.750000 0.701629
vt 0.750000 0.682272
f 52/36/52 65/39/65 66/40/66
f 66/40/66 53/37/53 52/36/52
vt 0.750000 0.751935
vt 0.750000 0.738722
f 66/41/66 67/42/67 55/13/55
f 55/13/55 53/37/53 66/41/66
vt 0.750000 0.642662
vt 0.750000 0.582373
f 67/43/67 33/44/33 32/17/32
f 32/17/32 55/13/55 67/43/67
vt 0.750000 0.819767
vt 0.750000 0.000187
f 19/45/19 20/46/20 56/15/56
f 56/15/56 32/17/32 19/45/19
f 68/1/68 1/1/1 34/3/34
f 34/3/34 69/3/69 68/1/68
f 69/3/69 34/3/34 36/5/36
f 36/5/36 70/5/70 69/3/69
f 70/5/70 36/5/36 38/7/38
f 38/7/38 71/7/71 70/5/70
f 41/33/41 72/33/72 71/7/71
f 71/7/71 38/7/38 41/33/41
f 43/9/43 73/9/73 72/33/72
f 72/33/72 41/33/41 43/9/43
f 43/9/43 44/11/44 74/11/74
f 74/11/74 73/9/73 43/9/43
f 44/11/44 47/15/47 75/15/75
f 75/15/75 74/11/74 44/11/44
f 47/15/47 46/15/46 76/15/76
f 76/15/76 75/15/75 47/15/47
f 46/15/46 51/15/51 77/15/77
f 77/15/77 76/15/76 46/15/46
f 51/15/51 50/15/50 78/15/78
f 78/15/78 77/15/77 51/15/51
f 50/15/50 54/15/54 79/15/79
f 79/15/79 78/15/78 50/15/50
f 54/15/54 56/15/56 80/15/80
f 80/15/80 79/15/79 54/15/54
f 56/15/56 20/15/20 81/15/81
f 81/15/81 80/15/80 56/15/56
f 20/15/20 17/15/17 82/15/82
f 82/15/82 81/15/81 20/15/20
f 17/15/17 16/15/16 83/15/83
f 83/15/83 82/15/82 17/15/17
f 13/15/13 84/15/84 83/15/83
f 83/15/83 16/15/16 13/15/13
f 13/15/13 11/9/11 85/9/85
f 85/9/85 84/15/84 13/15/13
f 85/9/85 11/9/11 9/7/9
f 9/7/9 86/7/86 85/9/85
f 86/7/86 9/7/9 7/5/7
f 7/5/7 87/5/87 86/7/86
f 87/5/87 7/5/7 5/3/5
f 5/3/5 88/3/88 87/5/87
f 88/3/88 5/3/5 2/1/2
f 2/1/2 89/1/89 88/3/88
f 89/1/89 2/1/2 1/1/1
f 1/1/1 68/1/68 89/1/89
f 23/19/23 24/20/24 25/21/25
f 26/22/26 27/24/27 29/24/29
f 25/21/25 26/22/26 29/24/29
f 23/19/23 25/21/25 29/24/29
f 29/24/29 28/24/28 30/24/30
f 30/24/30 31/24/31 33/24/33
f 29/24/29 30/24/30 33/24/33
f 33/24/33 67/24/67 66/24/66
f 29/24/29 33/24/33 66/24/66
f 65/24/65 64/24/64 63/24/63
f 66/24/66 65/24/65 63/24/63
f 66/24/66 63/24/63 62/24/62
f 29/24/29 66/24/66 62/24/62
f 29/24/29 62/24/62 61/22/61
f 23/19/23 29/24/29 61/22/61
f 61/22/61 60/38/60 59/21/59
f 61/22/61 59/21/59 58/20/58
f 23/19/23 61/22/61 58/20/58
f 58/20/58 57/19/57 22/18/22
f 23/19/23 58/20/58 22/18/22
f 21/18/21 23/19/23 22/18/22
# 154 faces, 46 coords texture

# End of File
