####
#
# OBJ File Generated by Meshlab
#
####
# Object holder_small.obj
#
# Vertices: 150
# Faces: 296
#
####


vn -3.288596 -0.092286 3.131751
v -10.960205 -6.763933 65.811905
vn -2.962916 -0.141683 3.125855
v -10.960205 -18.774187 66.341209
vn 2.962918 -0.141683 3.125855
v 10.960205 -18.774187 66.341209
vn 3.288596 -0.092286 3.131751
v 10.960205 -6.763933 65.811905
vn 4.502537 -1.723277 1.730062
v 10.960205 -2.019426 66.302139
vn -4.502537 -1.723277 1.730062
v -10.960205 -2.019426 66.302139
vn -3.051063 0.284129 -3.125487
v -10.960205 -6.552407 -68.836044
vn -2.689726 1.083893 -2.863476
v -10.960205 1.991050 -67.667587
vn 2.689726 1.083893 -2.863475
v 10.960205 1.991050 -67.667587
vn 3.051062 0.284129 -3.125487
v 10.960205 -6.552407 -68.836044
vn 2.961566 -0.139564 -3.125760
v 10.960205 -18.774332 -69.391212
vn -2.961568 -0.139564 -3.125760
v -10.960205 -18.774332 -69.391212
vn 2.962060 -0.696255 -3.050495
v 10.960205 -30.843300 -67.756447
vn -2.962060 -0.696255 -3.050495
v -10.960205 -30.843300 -67.756447
vn 2.962069 -1.229777 -2.877142
v 10.960205 -42.426430 -63.992775
vn -2.962070 -1.229777 -2.877142
v -10.960205 -42.426430 -63.992775
vn 2.962066 -1.723758 -2.611312
v 10.960205 -53.151405 -58.221287
vn -2.962068 -1.723758 -2.611312
v -10.960205 -53.151405 -58.221287
vn 2.962086 -2.162318 -2.261568
v 10.960205 -62.673374 -50.627537
vn -2.962086 -2.162318 -2.261568
v -10.960205 -62.673374 -50.627537
vn 2.962080 -2.531368 -1.839152
v 10.960205 -70.686562 -41.455658
vn -2.962080 -2.531368 -1.839152
v -10.960205 -70.686562 -41.455658
vn 2.962081 -2.819071 -1.357625
v 10.960205 -76.933258 -31.000580
vn -2.962082 -2.819071 -1.357625
v -10.960205 -76.933258 -31.000580
vn 2.962045 -3.016184 -0.832410
v 10.960205 -81.212799 -19.598236
vn -2.962044 -3.016184 -0.832410
v -10.960205 -81.212799 -19.598236
vn 2.962089 -3.116354 -0.280452
v 10.960205 -83.387360 -7.614348
vn -2.962088 -3.116354 -0.280452
v -10.960205 -83.387360 -7.614348
vn 2.962072 -3.116349 0.280480
v 10.960205 -83.387360 4.564851
vn -2.962071 -3.116349 0.280480
v -10.960205 -83.387360 4.564851
vn 2.962072 -3.016185 0.832423
v 10.960205 -81.212669 16.548248
vn -2.962071 -3.016185 0.832423
v -10.960205 -81.212669 16.548248
vn 2.962092 -2.819092 1.357584
v 10.960205 -76.933250 27.950592
vn -2.962092 -2.819092 1.357584
v -10.960205 -76.933250 27.950592
vn 2.962060 -2.531384 1.839126
v 10.960205 -70.686546 38.406158
vn -2.962062 -2.531384 1.839126
v -10.960205 -70.686546 38.406158
vn 2.962041 -2.162264 2.261612
v 10.960205 -62.673359 47.578030
vn -2.962043 -2.162264 2.261611
v -10.960205 -62.673359 47.578030
vn 2.962111 -1.723704 2.611356
v 10.960205 -53.151142 55.171291
vn -2.962111 -1.723704 2.611356
v -10.960205 -53.151142 55.171291
vn 2.962073 -1.229781 2.877141
v 10.960205 -42.426167 60.942772
vn -2.962073 -1.229781 2.877141
v -10.960205 -42.426167 60.942772
vn 2.962055 -0.696259 3.050493
v 10.960205 -30.843157 64.706444
vn -2.962057 -0.696259 3.050493
v -10.960205 -30.843157 64.706444
vn 4.016638 -2.691538 -0.923820
v 10.960205 -1.494035 71.198624
vn -4.016638 -2.691538 -0.923821
v -10.960205 -1.494035 71.198624
vn 1.726812 -2.383393 -0.145006
v 10.960205 -4.370621 74.176163
vn -1.726812 -2.383393 -0.145006
v -10.960205 -4.370621 74.176163
vn 4.149338 0.455939 -2.713110
v 10.960205 8.827966 -59.315048
vn 3.680709 2.445271 -1.786146
v 10.960205 6.682946 -61.015732
vn -3.680709 2.445271 -1.786146
v -10.960205 6.682946 -61.015732
vn -4.149339 0.455938 -2.713110
v -10.960205 8.827966 -59.315048
vn -2.555365 -2.294358 -1.944628
v -10.960205 14.456626 -66.530380
vn 2.555365 -2.294358 -1.944628
v 10.960205 14.456626 -66.530380
vn 3.180678 -2.855696 -1.307989
v 10.960205 13.279747 -63.822372
vn -3.180678 -2.855696 -1.307988
v -10.960205 13.279747 -63.822372
vn 3.925958 -1.935022 -2.164146
v 10.960205 11.571495 -60.277451
vn -3.925958 -1.935022 -2.164146
v -10.960205 11.571495 -60.277451
vn 2.519898 2.340419 -1.862447
v 10.960205 4.902305 -65.727646
vn -2.519898 2.340419 -1.862447
v -10.960205 4.902305 -65.727646
vn 2.573085 -0.861747 -2.889317
v 10.960205 17.086266 -68.233017
vn -2.580078 -0.874283 -2.889203
v -10.960205 17.086266 -68.233017
vn -2.957163 0.149798 -3.124656
v -10.960205 -6.846819 64.815323
vn 2.957163 0.149798 -3.124656
v 10.960205 -6.846819 64.815323
vn 3.320547 0.141279 -3.125834
v 10.960205 -18.729265 65.342186
vn -3.320548 0.141279 -3.125834
v -10.960205 -18.729265 65.342186
vn -1.837279 1.777650 -1.753368
v -10.960205 -1.311174 65.596085
vn 1.837280 1.777650 -1.753368
v 10.960205 -1.311174 65.596085
vn -3.229282 -0.279836 3.126074
v -10.960205 -6.679605 -67.844345
vn 3.229282 -0.279836 3.126073
v 10.960205 -6.679605 -67.844345
vn 3.587055 -1.067470 2.872026
v 10.960205 1.644615 -66.729599
vn -3.587055 -1.067470 2.872026
v -10.960205 1.644615 -66.729599
vn -3.321671 0.139517 3.125755
v -10.960205 -18.729408 -68.392189
vn 3.321671 0.139517 3.125755
v 10.960205 -18.729408 -68.392189
vn -3.321095 0.696242 3.050502
v -10.960205 -30.620766 -66.781349
vn 3.321095 0.696242 3.050502
v 10.960205 -30.620766 -66.781349
vn -3.321135 1.229745 2.877153
v -10.960205 -42.033363 -63.073341
vn 3.321133 1.229745 2.877153
v 10.960205 -42.033363 -63.073341
vn -3.321115 1.723751 2.611317
v -10.960205 -52.600502 -57.386814
vn 3.321116 1.723751 2.611318
v 10.960205 -52.600502 -57.386814
vn -3.321088 2.162298 2.261590
v -10.960205 -61.982334 -49.904881
vn 3.321087 2.162298 2.261590
v 10.960205 -61.982334 -49.904881
vn -3.321121 2.531353 1.839169
v -10.960205 -69.877602 -40.868256
vn 3.321121 2.531353 1.839169
v 10.960205 -69.877602 -40.868256
vn -3.321123 2.819083 1.357594
v -10.960205 -76.032379 -30.566986
vn 3.321122 2.819083 1.357594
v 10.960205 -76.032379 -30.566986
vn -3.321115 3.016193 0.832393
v -10.960205 -80.248810 -19.332123
vn 3.321115 3.016193 0.832393
v 10.960205 -80.248810 -19.332123
vn -3.321104 3.116352 0.280464
v -10.960205 -82.391388 -7.524993
vn 3.321105 3.116352 0.280464
v 10.960205 -82.391388 -7.524993
vn -3.321114 3.116349 -0.280480
v -10.960205 -82.391388 4.475007
vn 3.321115 3.116349 -0.280480
v 10.960205 -82.391388 4.475007
vn -3.321103 3.016190 -0.832409
v -10.960205 -80.248680 16.282135
vn 3.321104 3.016191 -0.832409
v 10.960205 -80.248680 16.282135
vn -3.321123 2.819082 -1.357595
v -10.960205 -76.032249 27.516998
vn 3.321124 2.819082 -1.357595
v 10.960205 -76.032249 27.516998
vn -3.321122 2.531353 -1.839170
v -10.960205 -69.877464 37.818268
vn 3.321120 2.531353 -1.839170
v 10.960205 -69.877464 37.818268
vn -3.321095 2.162289 -2.261597
v -10.960205 -61.982197 46.854885
vn 3.321094 2.162289 -2.261597
v 10.960205 -61.982197 46.854885
vn -3.321105 1.723749 -2.611321
v -10.960205 -52.600239 54.336819
vn 3.321104 1.723749 -2.611321
v 10.960205 -52.600239 54.336819
vn -3.321139 1.229751 -2.877150
v -10.960205 -42.033222 60.023338
vn 3.321138 1.229751 -2.877150
v 10.960205 -42.033222 60.023338
vn -3.321095 0.696242 -3.050502
v -10.960205 -30.620623 63.731346
vn 3.321095 0.696242 -3.050502
v 10.960205 -30.620623 63.731346
vn -2.262674 2.704867 0.875682
v -10.960205 -0.555558 71.543839
vn 2.262673 2.704867 0.875682
v 10.960205 -0.555558 71.543839
vn -1.399179 -0.107091 2.020047
v -10.960205 -3.767960 74.974503
vn 1.399180 -0.107091 2.020047
v 10.960205 -3.767960 74.974503
vn 2.160577 -0.437582 2.736413
v 10.960205 8.687951 -58.324814
vn -2.160577 -0.437582 2.736413
v -10.960205 8.687951 -58.324814
vn -2.576340 -2.421517 1.799519
v -10.960205 5.830651 -60.492783
vn 2.576341 -2.421517 1.799519
v 10.960205 5.830651 -60.492783
vn 3.073657 2.855650 1.305177
v 10.960205 14.209923 -63.455185
vn 3.744398 2.301954 1.923758
v 10.960205 15.223961 -65.889267
vn -3.744532 2.301758 1.923884
v -10.960205 15.223961 -65.889267
vn -3.073657 2.855650 1.305177
v -10.960205 14.209923 -63.455185
vn 2.365405 1.917537 2.186157
v 10.960205 12.266198 -59.558212
vn -2.365405 1.917536 2.186157
v -10.960205 12.266198 -59.558212
vn 3.777334 -2.331024 1.863283
v 10.960205 4.107139 -65.121201
vn -3.777334 -2.331025 1.863283
v -10.960205 4.107139 -65.121201
vn 3.714862 0.851953 2.890481
v 10.960205 17.368980 -67.274033
vn -3.714624 0.851749 2.890631
v -10.960205 17.368980 -67.273544
vn -3.141430 0.000130 3.141593
v -10.960205 20.182945 -67.273544
vn -3.132004 0.173732 3.030822
v -10.960205 26.576744 -67.274033
vn -3.129809 0.173411 -3.030821
v -10.960205 26.576744 -68.274033
vn -3.128049 -0.020635 -3.141464
v -10.960205 20.182945 -68.273544
vn -3.005025 0.792255 2.847579
v -10.901184 27.107384 -67.274033
vn -3.004680 0.792064 -2.847579
v -10.901184 27.107384 -68.274033
vn -2.554692 1.729218 2.761083
v -10.724304 27.520226 -67.274033
vn -2.554692 1.729218 -2.761083
v -10.724304 27.520226 -68.274033
vn -1.729448 2.554462 2.760876
v -10.429443 27.815147 -67.274033
vn -1.729398 2.554324 -2.760877
v -10.429443 27.815147 -68.274033
vn -0.792058 3.005047 2.847456
v -10.016602 27.992027 -67.274033
vn -0.792058 3.005047 -2.847452
v -10.016602 27.992027 -68.274033
vn -0.173446 3.131988 3.030948
v -9.485901 28.050987 -67.274033
vn -0.173446 3.131988 -3.030955
v -9.485901 28.050987 -68.274033
vn 0.173426 3.131990 3.030967
v 9.485901 28.050987 -67.274033
vn 0.173426 3.131990 -3.030961
v 9.485901 28.050987 -68.274033
vn 3.131986 0.173465 3.030935
v 10.960205 26.576744 -67.274033
vn 3.129256 0.167882 -3.030925
v 10.960205 26.576744 -68.274033
vn 3.004967 0.792258 2.847340
v 10.901245 27.107384 -67.274033
vn 3.004967 0.792258 -2.847340
v 10.901245 27.107384 -68.274033
vn 2.554384 1.729629 2.761001
v 10.724304 27.520226 -67.274033
vn 2.554384 1.729629 -2.761000
v 10.724304 27.520226 -68.274033
vn 1.729656 2.554504 2.761387
v 10.429443 27.815025 -67.274033
vn 1.729656 2.554504 -2.761386
v 10.429443 27.815025 -68.274033
vn 0.792476 3.004862 2.847137
v 10.016663 27.992027 -67.274033
vn 0.792476 3.004862 -2.847140
v 10.016663 27.992027 -68.274033
# 150 vertices, 0 vertices normals


usemtl material_0
vt 0.771429 1.000000
vt 0.742857 1.000000
vt 0.742857 0.000000
f 1/1/1 2/2/2 3/3/3
vt 0.771429 0.000000
f 3/3/3 4/4/4 1/1/1
vt 0.778571 0.000000
vt 0.778571 1.000000
f 4/4/4 5/5/5 6/6/6
f 6/6/6 1/1/1 4/4/4
vt 0.228572 1.000000
vt 0.223214 1.000000
vt 0.223214 0.000000
f 7/7/7 8/8/8 9/9/9
vt 0.228572 0.000000
f 9/9/9 10/10/10 7/7/7
vt 0.257143 0.000000
vt 0.257143 1.000000
f 11/11/11 12/12/12 7/7/7
f 7/7/7 10/10/10 11/11/11
vt 0.285714 0.000000
vt 0.285714 1.000000
f 13/13/13 14/14/14 12/12/12
f 12/12/12 11/11/11 13/13/13
vt 0.314286 0.000000
vt 0.314286 1.000000
f 13/13/13 15/15/15 16/16/16
f 16/16/16 14/14/14 13/13/13
vt 0.342857 0.000000
vt 0.342857 1.000000
f 15/15/15 17/17/17 18/18/18
f 18/18/18 16/16/16 15/15/15
vt 0.371429 0.000000
vt 0.371429 1.000000
f 19/19/19 20/20/20 18/18/18
f 18/18/18 17/17/17 19/19/19
vt 0.400000 0.000000
vt 0.400000 1.000000
f 21/21/21 22/22/22 20/20/20
f 20/20/20 19/19/19 21/21/21
vt 0.428572 0.000000
vt 0.428572 1.000000
f 23/23/23 24/24/24 22/22/22
f 22/22/22 21/21/21 23/23/23
vt 0.457143 0.000000
vt 0.457143 1.000000
f 25/25/25 26/26/26 24/24/24
f 24/24/24 23/23/23 25/25/25
vt 0.485714 0.000000
vt 0.485714 1.000000
f 27/27/27 28/28/28 26/26/26
f 26/26/26 25/25/25 27/27/27
vt 0.514286 0.000000
vt 0.514286 1.000000
f 29/29/29 30/30/30 28/28/28
f 28/28/28 27/27/27 29/29/29
vt 0.542857 0.000000
vt 0.542857 1.000000
f 31/31/31 32/32/32 30/30/30
f 30/30/30 29/29/29 31/31/31
vt 0.571429 0.000000
vt 0.571429 1.000000
f 33/33/33 34/34/34 32/32/32
f 32/32/32 31/31/31 33/33/33
vt 0.600000 0.000000
vt 0.600000 1.000000
f 33/33/33 35/35/35 36/36/36
f 36/36/36 34/34/34 33/33/33
vt 0.628572 0.000000
vt 0.628572 1.000000
f 37/37/37 38/38/38 36/36/36
f 36/36/36 35/35/35 37/37/37
vt 0.657143 0.000000
vt 0.657143 1.000000
f 39/39/39 40/40/40 38/38/38
f 38/38/38 37/37/37 39/39/39
vt 0.685714 0.000000
vt 0.685714 1.000000
f 41/41/41 42/42/42 40/40/40
f 40/40/40 39/39/39 41/41/41
vt 0.714286 0.000000
vt 0.714286 1.000000
f 41/41/41 43/43/43 44/44/44
f 44/44/44 42/42/42 41/41/41
f 43/43/43 3/3/3 2/2/2
f 2/2/2 44/44/44 43/43/43
f 5/5/5 45/5/45 46/6/46
f 46/6/46 6/6/6 5/5/5
f 46/6/46 45/5/45 47/5/47
f 47/5/47 48/6/48 46/6/46
f 49/9/49 50/9/50 51/8/51
f 51/8/51 52/8/52 49/9/49
f 53/8/53 54/9/54 55/9/55
f 55/9/55 56/8/56 53/8/53
f 57/9/57 49/9/49 52/8/52
f 52/8/52 58/8/58 57/9/57
f 51/8/51 50/9/50 59/9/59
f 59/9/59 60/8/60 51/8/51
f 60/8/60 59/9/59 9/9/9
f 9/9/9 8/8/8 60/8/60
f 61/9/61 54/9/54 53/8/53
f 53/8/53 62/8/62 61/9/61
f 56/8/56 55/9/55 57/9/57
f 57/9/57 58/8/58 56/8/56
f 63/1/63 64/4/64 65/3/65
f 65/3/65 66/2/66 63/1/63
f 67/6/67 68/5/68 64/4/64
f 64/4/64 63/1/63 67/6/67
f 69/7/69 70/10/70 71/9/71
f 71/9/71 72/8/72 69/7/69
f 69/7/69 73/12/73 74/11/74
f 74/11/74 70/10/70 69/7/69
f 73/12/73 75/14/75 76/13/76
f 76/13/76 74/11/74 73/12/73
f 77/16/77 78/15/78 76/13/76
f 76/13/76 75/14/75 77/16/77
f 79/18/79 80/17/80 78/15/78
f 78/15/78 77/16/77 79/18/79
f 79/18/79 81/20/81 82/19/82
f 82/19/82 80/17/80 79/18/79
f 81/20/81 83/22/83 84/21/84
f 84/21/84 82/19/82 81/20/81
f 83/22/83 85/24/85 86/23/86
f 86/23/86 84/21/84 83/22/83
f 85/24/85 87/26/87 88/25/88
f 88/25/88 86/23/86 85/24/85
f 87/26/87 89/28/89 90/27/90
f 90/27/90 88/25/88 87/26/87
f 89/28/89 91/30/91 92/29/92
f 92/29/92 90/27/90 89/28/89
f 91/30/91 93/32/93 94/31/94
f 94/31/94 92/29/92 91/30/91
f 93/32/93 95/34/95 96/33/96
f 96/33/96 94/31/94 93/32/93
f 97/36/97 98/35/98 96/33/96
f 96/33/96 95/34/95 97/36/97
f 97/36/97 99/38/99 100/37/100
f 100/37/100 98/35/98 97/36/97
f 99/38/99 101/40/101 102/39/102
f 102/39/102 100/37/100 99/38/99
f 101/40/101 103/42/103 104/41/104
f 104/41/104 102/39/102 101/40/101
f 105/44/105 106/43/106 104/41/104
f 104/41/104 103/42/103 105/44/105
f 66/2/66 65/3/65 106/43/106
f 106/43/106 105/44/105 66/2/66
f 107/6/107 108/5/108 68/5/68
f 68/5/68 67/6/67 107/6/107
f 107/6/107 109/6/109 110/5/110
f 110/5/110 108/5/108 107/6/107
f 111/9/111 112/8/112 113/8/113
f 113/8/113 114/9/114 111/9/111
f 115/9/115 116/9/116 117/8/117
f 117/8/117 118/8/118 115/9/115
f 119/9/119 120/8/120 112/8/112
f 112/8/112 111/9/111 119/9/119
f 121/9/121 114/9/114 113/8/113
f 113/8/113 122/8/122 121/9/121
f 71/9/71 121/9/121 122/8/122
f 122/8/122 72/8/72 71/9/71
f 117/8/117 116/9/116 123/9/123
f 123/9/123 124/8/124 117/8/117
f 119/9/119 115/9/115 118/8/118
f 118/8/118 120/8/120 119/9/119
f 65/3/65 64/4/64 4/4/4
f 4/4/4 3/3/3 65/3/65
f 63/1/63 66/2/66 2/2/2
f 2/2/2 1/1/1 63/1/63
f 64/4/64 68/5/68 5/5/5
f 5/5/5 4/4/4 64/4/64
f 1/1/1 6/6/6 67/6/67
f 67/6/67 63/1/63 1/1/1
f 10/10/10 9/9/9 71/9/71
f 71/9/71 70/10/70 10/10/10
f 69/7/69 72/8/72 8/8/8
f 8/8/8 7/7/7 69/7/69
f 7/7/7 12/12/12 73/12/73
f 73/12/73 69/7/69 7/7/7
f 70/10/70 74/11/74 11/11/11
f 11/11/11 10/10/10 70/10/70
f 12/12/12 14/14/14 75/14/75
f 75/14/75 73/12/73 12/12/12
f 74/11/74 76/13/76 13/13/13
f 13/13/13 11/11/11 74/11/74
f 76/13/76 78/15/78 15/15/15
f 15/15/15 13/13/13 76/13/76
f 14/14/14 16/16/16 77/16/77
f 77/16/77 75/14/75 14/14/14
f 78/15/78 80/17/80 17/17/17
f 17/17/17 15/15/15 78/15/78
f 16/16/16 18/18/18 79/18/79
f 79/18/79 77/16/77 16/16/16
f 18/18/18 20/20/20 81/20/81
f 81/20/81 79/18/79 18/18/18
f 80/17/80 82/19/82 19/19/19
f 19/19/19 17/17/17 80/17/80
f 20/20/20 22/22/22 83/22/83
f 83/22/83 81/20/81 20/20/20
f 82/19/82 84/21/84 21/21/21
f 21/21/21 19/19/19 82/19/82
f 22/22/22 24/24/24 85/24/85
f 85/24/85 83/22/83 22/22/22
f 84/21/84 86/23/86 23/23/23
f 23/23/23 21/21/21 84/21/84
f 24/24/24 26/26/26 87/26/87
f 87/26/87 85/24/85 24/24/24
f 86/23/86 88/25/88 25/25/25
f 25/25/25 23/23/23 86/23/86
f 26/26/26 28/28/28 89/28/89
f 89/28/89 87/26/87 26/26/26
f 88/25/88 90/27/90 27/27/27
f 27/27/27 25/25/25 88/25/88
f 28/28/28 30/30/30 91/30/91
f 91/30/91 89/28/89 28/28/28
f 90/27/90 92/29/92 29/29/29
f 29/29/29 27/27/27 90/27/90
f 30/30/30 32/32/32 93/32/93
f 93/32/93 91/30/91 30/30/30
f 92/29/92 94/31/94 31/31/31
f 31/31/31 29/29/29 92/29/92
f 32/32/32 34/34/34 95/34/95
f 95/34/95 93/32/93 32/32/32
f 94/31/94 96/33/96 33/33/33
f 33/33/33 31/31/31 94/31/94
f 96/33/96 98/35/98 35/35/35
f 35/35/35 33/33/33 96/33/96
f 34/34/34 36/36/36 97/36/97
f 97/36/97 95/34/95 34/34/34
f 36/36/36 38/38/38 99/38/99
f 99/38/99 97/36/97 36/36/36
f 98/35/98 100/37/100 37/37/37
f 37/37/37 35/35/35 98/35/98
f 38/38/38 40/40/40 101/40/101
f 101/40/101 99/38/99 38/38/38
f 100/37/100 102/39/102 39/39/39
f 39/39/39 37/37/37 100/37/100
f 40/40/40 42/42/42 103/42/103
f 103/42/103 101/40/101 40/40/40
f 102/39/102 104/41/104 41/41/41
f 41/41/41 39/39/39 102/39/102
f 104/41/104 106/43/106 43/43/43
f 43/43/43 41/41/41 104/41/104
f 42/42/42 44/44/44 105/44/105
f 105/44/105 103/42/103 42/42/42
f 106/43/106 65/3/65 3/3/3
f 3/3/3 43/43/43 106/43/106
f 44/44/44 2/2/2 66/2/66
f 66/2/66 105/44/105 44/44/44
f 68/5/68 108/5/108 45/5/45
f 45/5/45 5/5/5 68/5/68
f 6/6/6 46/6/46 107/6/107
f 107/6/107 67/6/67 6/6/6
f 108/5/108 110/5/110 47/5/47
f 47/5/47 45/5/45 108/5/108
f 46/6/46 48/6/48 109/6/109
f 109/6/109 107/6/107 46/6/46
f 110/5/110 109/6/109 48/6/48
f 48/6/48 47/5/47 110/5/110
f 52/8/52 51/8/51 113/8/113
f 113/8/113 112/8/112 52/8/52
f 111/9/111 114/9/114 50/9/50
f 50/9/50 49/9/49 111/9/111
f 118/8/118 117/8/117 53/8/53
f 53/8/53 56/8/56 118/8/118
f 116/9/116 115/9/115 55/9/55
f 55/9/55 54/9/54 116/9/116
f 58/8/58 52/8/52 112/8/112
f 112/8/112 120/8/120 58/8/58
f 119/9/119 111/9/111 49/9/49
f 49/9/49 57/9/57 119/9/119
f 59/9/59 50/9/50 114/9/114
f 114/9/114 121/9/121 59/9/59
f 122/8/122 113/8/113 51/8/51
f 51/8/51 60/8/60 122/8/122
f 72/8/72 122/8/122 60/8/60
f 60/8/60 8/8/8 72/8/72
f 121/9/121 71/9/71 9/9/9
f 9/9/9 59/9/59 121/9/121
f 117/8/117 124/8/124 62/8/62
f 62/8/62 53/8/53 117/8/117
f 123/9/123 116/9/116 54/9/54
f 54/9/54 61/9/61 123/9/123
f 57/9/57 55/9/55 115/9/115
f 115/9/115 119/9/119 57/9/57
f 120/8/120 118/8/118 56/8/56
f 56/8/56 58/8/58 120/8/120
f 125/8/125 126/8/126 127/8/127
f 127/8/127 128/8/128 125/8/125
vt 0.223214 0.997310
f 126/8/126 129/45/129 130/45/130
f 130/45/130 127/8/127 126/8/126
vt 0.223214 0.989239
f 129/45/129 131/46/131 132/46/132
f 132/46/132 130/45/130 129/45/129
vt 0.223214 0.975788
f 131/46/131 133/47/133 134/47/134
f 134/47/134 132/46/132 131/46/131
vt 0.223214 0.956956
f 133/47/133 135/48/135 136/48/136
f 136/48/136 134/47/134 133/47/133
vt 0.223214 0.932743
f 135/48/135 137/49/137 138/49/138
f 138/49/138 136/48/136 135/48/135
vt 0.223214 0.067257
f 137/49/137 139/50/139 140/50/140
f 140/50/140 138/49/138 137/49/137
f 124/8/124 125/8/125 128/8/128
f 128/8/128 62/8/62 124/8/124
f 141/9/141 123/9/123 61/9/61
f 61/9/61 142/9/142 141/9/141
vt 0.223214 0.002690
f 143/51/143 141/9/141 142/9/142
f 142/9/142 144/51/144 143/51/143
vt 0.223214 0.010761
f 145/52/145 143/51/143 144/51/144
f 144/51/144 146/52/146 145/52/145
vt 0.223214 0.024212
f 147/53/147 145/52/145 146/52/146
f 146/52/146 148/53/148 147/53/147
vt 0.223214 0.043044
f 149/54/149 147/53/147 148/53/148
f 148/53/148 150/54/150 149/54/149
f 139/50/139 149/54/149 150/54/150
f 150/54/150 140/50/140 139/50/139
f 128/8/128 127/8/127 130/45/130
f 130/45/130 132/46/132 134/47/134
f 128/8/128 130/45/130 134/47/134
f 134/47/134 136/48/136 138/49/138
f 138/49/138 140/50/140 150/54/150
f 134/47/134 138/49/138 150/54/150
f 150/54/150 148/53/148 146/52/146
f 146/52/146 144/51/144 142/9/142
f 150/54/150 146/52/146 142/9/142
f 134/47/134 150/54/150 142/9/142
f 128/8/128 134/47/134 142/9/142
f 128/8/128 142/9/142 61/9/61
f 62/8/62 128/8/128 61/9/61
f 123/9/123 141/9/141 143/51/143
f 143/51/143 145/52/145 147/53/147
f 123/9/123 143/51/143 147/53/147
f 147/53/147 149/54/149 139/50/139
f 139/50/139 137/49/137 135/48/135
f 147/53/147 139/50/139 135/48/135
f 135/48/135 133/47/133 131/46/131
f 131/46/131 129/45/129 126/8/126
f 135/48/135 131/46/131 126/8/126
f 147/53/147 135/48/135 126/8/126
f 123/9/123 147/53/147 126/8/126
f 123/9/123 126/8/126 125/8/125
f 123/9/123 125/8/125 124/8/124
# 296 faces, 54 coords texture

# End of File
